<svg width="109" height="17" viewBox="0 0 109 17" fill="none" xmlns="http://www.w3.org/2000/svg">
<path d="M1.425 12.495C1.31167 12.495 1.20967 12.4553 1.119 12.376C1.03967 12.2967 1 12.1947 1 12.07V1.02C1 0.895333 1.03967 0.793333 1.119 0.714C1.20967 0.634666 1.31167 0.594999 1.425 0.594999H3.261C3.44233 0.594999 3.57833 0.645999 3.669 0.747999C3.771 0.838666 3.83333 0.912333 3.856 0.969L6.848 6.341L9.84 0.969C9.874 0.912333 9.93067 0.838666 10.01 0.747999C10.1007 0.645999 10.2423 0.594999 10.435 0.594999H12.254C12.3787 0.594999 12.4807 0.634666 12.56 0.714C12.6507 0.793333 12.696 0.895333 12.696 1.02V12.07C12.696 12.1947 12.6507 12.2967 12.56 12.376C12.4807 12.4553 12.3787 12.495 12.254 12.495H10.231C10.1063 12.495 9.99867 12.4553 9.908 12.376C9.82867 12.2967 9.789 12.1947 9.789 12.07V5.695L7.868 9.248C7.82267 9.35 7.75467 9.44067 7.664 9.52C7.57333 9.59933 7.44867 9.639 7.29 9.639H6.406C6.24733 9.639 6.12267 9.59933 6.032 9.52C5.94133 9.44067 5.86767 9.35 5.811 9.248L3.89 5.695V12.07C3.89 12.1947 3.85033 12.2967 3.771 12.376C3.69167 12.4553 3.58967 12.495 3.465 12.495H1.425Z" fill="white" fill-opacity="0.8"/>
<path d="M30.0635 12.495C29.8935 12.495 29.7688 12.4553 29.6895 12.376C29.6101 12.2853 29.5421 12.1833 29.4855 12.07L26.2725 4.182C26.2498 4.13667 26.2385 4.08567 26.2385 4.029C26.2385 3.927 26.2725 3.842 26.3405 3.774C26.4198 3.69467 26.5161 3.655 26.6295 3.655H28.5505C28.6978 3.655 28.8111 3.69467 28.8905 3.774C28.9698 3.85333 29.0208 3.93267 29.0435 4.012L30.9645 9.231L32.9025 4.012C32.9251 3.93267 32.9761 3.85333 33.0555 3.774C33.1348 3.69467 33.2481 3.655 33.3955 3.655H35.3165C35.4185 3.655 35.5091 3.69467 35.5885 3.774C35.6678 3.842 35.7075 3.927 35.7075 4.029C35.7075 4.08567 35.6961 4.13667 35.6735 4.182L32.4605 12.07C32.4151 12.1833 32.3471 12.2853 32.2565 12.376C32.1771 12.4553 32.0468 12.495 31.8655 12.495H30.0635Z" fill="white" fill-opacity="0.8"/>
<path d="M37.4538 12.495C37.3292 12.495 37.2272 12.4553 37.1478 12.376C37.0685 12.2967 37.0288 12.1947 37.0288 12.07V4.08C37.0288 3.95533 37.0685 3.85333 37.1478 3.774C37.2272 3.69467 37.3292 3.655 37.4538 3.655H39.4598C39.5732 3.655 39.6695 3.69467 39.7488 3.774C39.8395 3.85333 39.8848 3.95533 39.8848 4.08V12.07C39.8848 12.1947 39.8395 12.2967 39.7488 12.376C39.6695 12.4553 39.5732 12.495 39.4598 12.495H37.4538ZM37.4368 2.38C37.3122 2.38 37.2102 2.34033 37.1308 2.261C37.0515 2.18167 37.0118 2.07967 37.0118 1.955V0.441999C37.0118 0.317333 37.0515 0.215333 37.1308 0.135999C37.2102 0.0453331 37.3122 0 37.4368 0H39.4598C39.5845 0 39.6865 0.0453331 39.7658 0.135999C39.8565 0.215333 39.9018 0.317333 39.9018 0.441999V1.955C39.9018 2.07967 39.8565 2.18167 39.7658 2.261C39.6865 2.34033 39.5845 2.38 39.4598 2.38H37.4368Z" fill="white" fill-opacity="0.8"/>
<path d="M46.0395 12.665C44.7022 12.665 43.6368 12.3023 42.8435 11.577C42.0501 10.8517 41.6365 9.775 41.6025 8.347C41.6025 8.26767 41.6025 8.16567 41.6025 8.041C41.6025 7.91633 41.6025 7.82 41.6025 7.752C41.6365 6.85667 41.8348 6.09167 42.1975 5.457C42.5715 4.811 43.0815 4.32367 43.7275 3.995C44.3848 3.655 45.1498 3.485 46.0225 3.485C47.0198 3.485 47.8415 3.68333 48.4875 4.08C49.1448 4.47667 49.6378 5.015 49.9665 5.695C50.2952 6.375 50.4595 7.15133 50.4595 8.024V8.432C50.4595 8.55667 50.4141 8.65867 50.3235 8.738C50.2441 8.81733 50.1478 8.857 50.0345 8.857H44.5945C44.5945 8.86833 44.5945 8.88533 44.5945 8.908C44.5945 8.93067 44.5945 8.95333 44.5945 8.976C44.6058 9.30467 44.6625 9.605 44.7645 9.877C44.8665 10.149 45.0252 10.3643 45.2405 10.523C45.4558 10.6817 45.7165 10.761 46.0225 10.761C46.2492 10.761 46.4362 10.727 46.5835 10.659C46.7422 10.5797 46.8725 10.4947 46.9745 10.404C47.0765 10.302 47.1558 10.217 47.2125 10.149C47.3145 10.0357 47.3938 9.96767 47.4505 9.945C47.5185 9.911 47.6205 9.894 47.7565 9.894H49.8645C49.9778 9.894 50.0685 9.928 50.1365 9.996C50.2158 10.0527 50.2498 10.1377 50.2385 10.251C50.2272 10.4437 50.1308 10.676 49.9495 10.948C49.7682 11.22 49.5018 11.492 49.1505 11.764C48.8105 12.0247 48.3798 12.24 47.8585 12.41C47.3372 12.58 46.7308 12.665 46.0395 12.665ZM44.5945 7.174H47.4675V7.14C47.4675 6.77733 47.4108 6.46 47.2975 6.188C47.1955 5.916 47.0312 5.70633 46.8045 5.559C46.5892 5.41167 46.3285 5.338 46.0225 5.338C45.7165 5.338 45.4558 5.41167 45.2405 5.559C45.0365 5.70633 44.8778 5.916 44.7645 6.188C44.6512 6.46 44.5945 6.77733 44.5945 7.14V7.174Z" fill="white" fill-opacity="0.8"/>
<path d="M52.1892 12.495C52.0646 12.495 51.9569 12.4553 51.8662 12.376C51.7869 12.2967 51.7472 12.1947 51.7472 12.07V10.863C51.7472 10.7837 51.7699 10.6647 51.8152 10.506C51.8606 10.336 51.9796 10.1773 52.1722 10.03L53.9402 8.296C54.8469 7.60467 55.5892 7.021 56.1672 6.545C56.7566 6.05767 57.1929 5.627 57.4762 5.253C57.7596 4.879 57.9012 4.52767 57.9012 4.199C57.9012 3.81367 57.7992 3.49633 57.5952 3.247C57.4026 2.98633 57.0626 2.856 56.5752 2.856C56.2466 2.856 55.9689 2.92967 55.7422 3.077C55.5269 3.213 55.3626 3.39433 55.2492 3.621C55.1359 3.84767 55.0566 4.08 55.0112 4.318C54.9659 4.46533 54.8866 4.56733 54.7732 4.624C54.6712 4.68067 54.5579 4.709 54.4332 4.709H52.3082C52.2062 4.709 52.1212 4.675 52.0532 4.607C51.9852 4.539 51.9512 4.454 51.9512 4.352C51.9626 3.808 52.0759 3.298 52.2912 2.822C52.5179 2.346 52.8296 1.92667 53.2262 1.564C53.6342 1.19 54.1159 0.901 54.6712 0.697C55.2379 0.493 55.8726 0.391 56.5752 0.391C57.5386 0.391 58.3546 0.544 59.0232 0.849999C59.7032 1.156 60.2189 1.58667 60.5702 2.142C60.9216 2.686 61.0972 3.32633 61.0972 4.063C61.0972 4.61833 60.9726 5.13967 60.7232 5.627C60.4852 6.103 60.1396 6.562 59.6862 7.004C59.2442 7.43467 58.7172 7.88233 58.1052 8.347L56.5412 9.928H60.9102C61.0349 9.928 61.1369 9.96767 61.2162 10.047C61.3069 10.1263 61.3522 10.2283 61.3522 10.353V12.07C61.3522 12.1947 61.3069 12.2967 61.2162 12.376C61.1369 12.4553 61.0349 12.495 60.9102 12.495H52.1892Z" fill="white" fill-opacity="0.8"/>
<path d="M63.7219 12.495C63.5972 12.495 63.4952 12.4553 63.4159 12.376C63.3365 12.2967 63.2969 12.1947 63.2969 12.07V1.02C63.2969 0.895333 63.3365 0.793333 63.4159 0.714C63.4952 0.634666 63.5972 0.594999 63.7219 0.594999H65.5239C65.7165 0.594999 65.8525 0.640333 65.9319 0.731C66.0225 0.810333 66.0792 0.872666 66.1019 0.917999L70.2499 7.463V1.02C70.2499 0.895333 70.2895 0.793333 70.3689 0.714C70.4482 0.634666 70.5502 0.594999 70.6749 0.594999H72.7149C72.8395 0.594999 72.9415 0.634666 73.0209 0.714C73.1002 0.793333 73.1399 0.895333 73.1399 1.02V12.07C73.1399 12.1833 73.1002 12.2853 73.0209 12.376C72.9415 12.4553 72.8395 12.495 72.7149 12.495H70.8959C70.7145 12.495 70.5785 12.4497 70.4879 12.359C70.4085 12.2683 70.3575 12.206 70.3349 12.172L66.1869 5.882V12.07C66.1869 12.1947 66.1472 12.2967 66.0679 12.376C65.9885 12.4553 65.8865 12.495 65.7619 12.495H63.7219Z" fill="white" fill-opacity="0.8"/>
<path d="M75.7536 12.495C75.629 12.495 75.527 12.4553 75.4476 12.376C75.3683 12.2967 75.3286 12.1947 75.3286 12.07V4.08C75.3286 3.95533 75.3683 3.85333 75.4476 3.774C75.527 3.69467 75.629 3.655 75.7536 3.655H77.7596C77.873 3.655 77.9693 3.69467 78.0486 3.774C78.1393 3.85333 78.1846 3.95533 78.1846 4.08V12.07C78.1846 12.1947 78.1393 12.2967 78.0486 12.376C77.9693 12.4553 77.873 12.495 77.7596 12.495H75.7536ZM75.7366 2.38C75.612 2.38 75.51 2.34033 75.4306 2.261C75.3513 2.18167 75.3116 2.07967 75.3116 1.955V0.441999C75.3116 0.317333 75.3513 0.215333 75.4306 0.135999C75.51 0.0453331 75.612 0 75.7366 0H77.7596C77.8843 0 77.9863 0.0453331 78.0656 0.135999C78.1563 0.215333 78.2016 0.317333 78.2016 0.441999V1.955C78.2016 2.07967 78.1563 2.18167 78.0656 2.261C77.9863 2.34033 77.8843 2.38 77.7596 2.38H75.7366Z" fill="white" fill-opacity="0.8"/>
<path d="M84.5113 16.235C83.6386 16.235 82.9133 16.1217 82.3353 15.895C81.7686 15.6683 81.3153 15.3963 80.9753 15.079C80.6466 14.7617 80.4086 14.4443 80.2613 14.127C80.114 13.821 80.0346 13.5773 80.0233 13.396C80.012 13.2713 80.0516 13.1693 80.1423 13.09C80.2329 13.0107 80.3406 12.971 80.4653 12.971H82.6243C82.7263 12.971 82.8113 12.9937 82.8793 13.039C82.9586 13.0957 83.021 13.1863 83.0663 13.311C83.123 13.4357 83.1966 13.566 83.2873 13.702C83.3893 13.838 83.5253 13.9457 83.6953 14.025C83.8766 14.1157 84.1203 14.161 84.4263 14.161C84.7663 14.161 85.0496 14.1043 85.2763 13.991C85.5029 13.889 85.673 13.7133 85.7863 13.464C85.8996 13.226 85.9563 12.903 85.9563 12.495V11.356C85.6956 11.6393 85.3613 11.8717 84.9533 12.053C84.5453 12.223 84.0523 12.308 83.4743 12.308C82.8963 12.308 82.3863 12.223 81.9443 12.053C81.5023 11.883 81.1339 11.628 80.8393 11.288C80.5446 10.948 80.3123 10.5343 80.1423 10.047C79.9836 9.55967 79.8873 8.99867 79.8533 8.364C79.8419 8.06933 79.8419 7.77467 79.8533 7.48C79.8873 6.868 79.9836 6.31833 80.1423 5.831C80.3009 5.34367 80.5276 4.92433 80.8223 4.573C81.1283 4.22167 81.5023 3.95533 81.9443 3.774C82.3863 3.58133 82.8963 3.485 83.4743 3.485C84.0863 3.485 84.6076 3.604 85.0383 3.842C85.4803 4.06867 85.8429 4.35767 86.1263 4.709V4.08C86.1263 3.96667 86.166 3.87033 86.2453 3.791C86.3246 3.70033 86.4266 3.655 86.5513 3.655H88.5063C88.6309 3.655 88.7329 3.70033 88.8123 3.791C88.9029 3.87033 88.9483 3.96667 88.9483 4.08V12.257C88.9483 13.1183 88.7726 13.8437 88.4213 14.433C88.0699 15.0223 87.5656 15.47 86.9083 15.776C86.2509 16.082 85.452 16.235 84.5113 16.235ZM84.3923 10.098C84.7549 10.098 85.0496 10.0187 85.2763 9.86C85.5029 9.70133 85.6673 9.49733 85.7693 9.248C85.8826 8.99867 85.945 8.73233 85.9563 8.449C85.9676 8.32433 85.9733 8.14867 85.9733 7.922C85.9733 7.69533 85.9676 7.52533 85.9563 7.412C85.945 7.11733 85.8826 6.84533 85.7693 6.596C85.6673 6.34667 85.5029 6.14833 85.2763 6.001C85.0496 5.84233 84.7549 5.763 84.3923 5.763C84.0183 5.763 83.7179 5.84233 83.4913 6.001C83.2759 6.15967 83.1173 6.375 83.0153 6.647C82.9246 6.919 82.868 7.21933 82.8453 7.548C82.834 7.79733 82.834 8.05233 82.8453 8.313C82.868 8.64167 82.9246 8.942 83.0153 9.214C83.1173 9.486 83.2759 9.70133 83.4913 9.86C83.7179 10.0187 84.0183 10.098 84.3923 10.098Z" fill="white" fill-opacity="0.8"/>
<path d="M91.3757 12.495C91.251 12.495 91.149 12.4553 91.0697 12.376C90.9904 12.2967 90.9507 12.1947 90.9507 12.07V0.849999C90.9507 0.725333 90.9904 0.623333 91.0697 0.544C91.149 0.464666 91.251 0.425 91.3757 0.425H93.5517C93.6764 0.425 93.7784 0.464666 93.8577 0.544C93.937 0.623333 93.9767 0.725333 93.9767 0.849999V4.641C94.2827 4.28967 94.6567 4.012 95.0987 3.808C95.552 3.59267 96.0734 3.485 96.6627 3.485C97.32 3.485 97.9037 3.63233 98.4137 3.927C98.935 4.22167 99.343 4.658 99.6377 5.236C99.9324 5.80267 100.08 6.49967 100.08 7.327V12.07C100.08 12.1947 100.04 12.2967 99.9607 12.376C99.8814 12.4553 99.7794 12.495 99.6547 12.495H97.4617C97.3484 12.495 97.2464 12.4553 97.1557 12.376C97.0764 12.2967 97.0367 12.1947 97.0367 12.07V7.429C97.0367 6.89633 96.9064 6.48833 96.6457 6.205C96.3964 5.91033 96.0224 5.763 95.5237 5.763C95.059 5.763 94.685 5.91033 94.4017 6.205C94.1184 6.48833 93.9767 6.89633 93.9767 7.429V12.07C93.9767 12.1947 93.937 12.2967 93.8577 12.376C93.7784 12.4553 93.6764 12.495 93.5517 12.495H91.3757Z" fill="white" fill-opacity="0.8"/>
<path d="M106.446 12.495C105.721 12.495 105.092 12.3817 104.559 12.155C104.038 11.917 103.636 11.5543 103.352 11.067C103.069 10.5683 102.927 9.928 102.927 9.146V5.882H101.601C101.477 5.882 101.369 5.84233 101.278 5.763C101.199 5.68367 101.159 5.58167 101.159 5.457V4.08C101.159 3.95533 101.199 3.85333 101.278 3.774C101.369 3.69467 101.477 3.655 101.601 3.655H102.927V0.849999C102.927 0.725333 102.967 0.623333 103.046 0.544C103.137 0.464666 103.239 0.425 103.352 0.425H105.324C105.449 0.425 105.551 0.464666 105.63 0.544C105.71 0.623333 105.749 0.725333 105.749 0.849999V3.655H107.874C107.999 3.655 108.101 3.69467 108.18 3.774C108.26 3.85333 108.299 3.95533 108.299 4.08V5.457C108.299 5.58167 108.26 5.68367 108.18 5.763C108.101 5.84233 107.999 5.882 107.874 5.882H105.749V8.908C105.749 9.29333 105.823 9.59933 105.97 9.826C106.118 10.0527 106.367 10.166 106.718 10.166H108.027C108.152 10.166 108.254 10.2057 108.333 10.285C108.413 10.3643 108.452 10.4663 108.452 10.591V12.07C108.452 12.1947 108.413 12.2967 108.333 12.376C108.254 12.4553 108.152 12.495 108.027 12.495H106.446Z" fill="white" fill-opacity="0.8"/>
<path d="M14.8101 4.78083C14.8101 4.07168 15.3706 3.49512 16.0601 3.49512H23.5601C24.2495 3.49512 24.8101 4.07168 24.8101 4.78083V11.2094C24.8101 11.9186 24.2495 12.4951 23.5601 12.4951H16.0601C15.3706 12.4951 14.8101 11.9186 14.8101 11.2094V4.78083ZM15.7476 10.2451V10.888C15.7476 11.0648 15.8882 11.2094 16.0601 11.2094H16.6851C16.8569 11.2094 16.9976 11.0648 16.9976 10.888V10.2451C16.9976 10.0683 16.8569 9.92369 16.6851 9.92369H16.0601C15.8882 9.92369 15.7476 10.0683 15.7476 10.2451ZM22.9351 9.92369C22.7632 9.92369 22.6226 10.0683 22.6226 10.2451V10.888C22.6226 11.0648 22.7632 11.2094 22.9351 11.2094H23.5601C23.7319 11.2094 23.8726 11.0648 23.8726 10.888V10.2451C23.8726 10.0683 23.7319 9.92369 23.5601 9.92369H22.9351ZM15.7476 7.67369V8.31655C15.7476 8.49333 15.8882 8.63797 16.0601 8.63797H16.6851C16.8569 8.63797 16.9976 8.49333 16.9976 8.31655V7.67369C16.9976 7.4969 16.8569 7.35226 16.6851 7.35226H16.0601C15.8882 7.35226 15.7476 7.4969 15.7476 7.67369ZM22.9351 7.35226C22.7632 7.35226 22.6226 7.4969 22.6226 7.67369V8.31655C22.6226 8.49333 22.7632 8.63797 22.9351 8.63797H23.5601C23.7319 8.63797 23.8726 8.49333 23.8726 8.31655V7.67369C23.8726 7.4969 23.7319 7.35226 23.5601 7.35226H22.9351ZM15.7476 5.10226V5.74512C15.7476 5.9219 15.8882 6.06655 16.0601 6.06655H16.6851C16.8569 6.06655 16.9976 5.9219 16.9976 5.74512V5.10226C16.9976 4.92547 16.8569 4.78083 16.6851 4.78083H16.0601C15.8882 4.78083 15.7476 4.92547 15.7476 5.10226ZM22.9351 4.78083C22.7632 4.78083 22.6226 4.92547 22.6226 5.10226V5.74512C22.6226 5.9219 22.7632 6.06655 22.9351 6.06655H23.5601C23.7319 6.06655 23.8726 5.9219 23.8726 5.74512V5.10226C23.8726 4.92547 23.7319 4.78083 23.5601 4.78083H22.9351ZM17.9351 5.42369V6.7094C17.9351 7.06498 18.2144 7.35226 18.5601 7.35226H21.0601C21.4058 7.35226 21.6851 7.06498 21.6851 6.7094V5.42369C21.6851 5.06811 21.4058 4.78083 21.0601 4.78083H18.5601C18.2144 4.78083 17.9351 5.06811 17.9351 5.42369ZM18.5601 8.63797C18.2144 8.63797 17.9351 8.92525 17.9351 9.28083V10.5665C17.9351 10.9221 18.2144 11.2094 18.5601 11.2094H21.0601C21.4058 11.2094 21.6851 10.9221 21.6851 10.5665V9.28083C21.6851 8.92525 21.4058 8.63797 21.0601 8.63797H18.5601Z" fill="white" fill-opacity="0.8"/>
</svg>
